HIERARCHY
ROOT Hips
{
	OFFSET -0.001795 -0.223333 0.028219
	CHANNELS 6 Xposition Yposition Zposition Zrotation Yrotation Xrotation 
	JOINT LeftUpLeg
	{
		OFFSET 0.069520 -0.091406 -0.006815
		CHANNELS 3 Zrotation Yrotation Xrotation
		JOINT LeftLeg
		{
			OFFSET 0.034277 -0.375199 -0.004496
			CHANNELS 3 Zrotation Yrotation Xrotation
			JOINT LeftFoot
			{
				OFFSET -0.013596 -0.397961 -0.043693
				CHANNELS 3 Zrotation Yrotation Xrotation
				JOINT LeftToe
				{
					OFFSET 0.026358 -0.055791 0.119288
					CHANNELS 3 Zrotation Yrotation Xrotation
					End Site
					{
						OFFSET 0.000000 0.000000 0.000000
					}
				}
			}
		}
	}
	JOINT RightUpLeg
	{
		OFFSET -0.067670 -0.090522 -0.004320
		CHANNELS 3 Zrotation Yrotation Xrotation
		JOINT RightLeg
		{
			OFFSET -0.038290 -0.382569 -0.008850
			CHANNELS 3 Zrotation Yrotation Xrotation
			JOINT RightFoot
			{
				OFFSET 0.015774 -0.398415 -0.042312
				CHANNELS 3 Zrotation Yrotation Xrotation
				JOINT RightToe
				{
					OFFSET -0.025372 -0.048144 0.123348
					CHANNELS 3 Zrotation Yrotation Xrotation
					End Site
					{
						OFFSET 0.000000 0.000000 0.000000
					}
				}
			}
		}
	}
	JOINT Spine
	{
		OFFSET -0.002533 0.108963 -0.026696
		CHANNELS 3 Zrotation Yrotation Xrotation
		JOINT Spine1
		{
			OFFSET 0.005487 0.135180 0.001092
			CHANNELS 3 Zrotation Yrotation Xrotation
			JOINT Spine2
			{
				OFFSET 0.001457 0.052922 0.025425
				CHANNELS 3 Zrotation Yrotation Xrotation
				JOINT Neck
				{
					OFFSET -0.002778 0.213870 -0.042857
					CHANNELS 3 Zrotation Yrotation Xrotation
					JOINT Head
					{
						OFFSET 0.005152 0.064970 0.051349
						CHANNELS 3 Zrotation Yrotation Xrotation
						End Site
						{
							OFFSET 0.000000 0.000000 0.000000
						}
					}
				}
				JOINT LeftShoulder
				{
					OFFSET 0.078845 0.121749 -0.034090
					CHANNELS 3 Zrotation Yrotation Xrotation
					JOINT LeftArm
					{
						OFFSET 0.090977 0.030469 -0.008868
						CHANNELS 3 Zrotation Yrotation Xrotation
						JOINT LeftForeArm
						{
							OFFSET 0.259612 -0.012772 -0.027456
							CHANNELS 3 Zrotation Yrotation Xrotation
							JOINT LeftHand
							{
								OFFSET 0.249234 0.008986 -0.001171
								CHANNELS 3 Zrotation Yrotation Xrotation
								End Site
								{
									OFFSET 0.000000 0.000000 0.000000
								}
							}
						}
					}
				}
				JOINT RightShoulder
				{
					OFFSET -0.081759 0.118833 -0.038615
					CHANNELS 3 Zrotation Yrotation Xrotation
					JOINT RightArm
					{
						OFFSET -0.096012 0.032551 -0.009143
						CHANNELS 3 Zrotation Yrotation Xrotation
						JOINT RightForeArm
						{
							OFFSET -0.253742 -0.013329 -0.021401
							CHANNELS 3 Zrotation Yrotation Xrotation
							JOINT RightHand
							{
								OFFSET -0.255298 0.007772 -0.005559
								CHANNELS 3 Zrotation Yrotation Xrotation
								End Site
								{
									OFFSET 0.000000 0.000000 0.000000
								}
							}
						}
					}
				}
			}
		}
	}
}
MOTION
Frames: 5
Frame Time: 0.050000
0.000000 0.583827 0.000000 -5.627231 -1.157679 26.853188 22.295269 10.588792 -78.018916 -12.572299 17.248236 103.910610 13.866732 24.410166 24.862043 0.000000 0.000000 0.000000 -18.022499 -4.953473 -93.118460 35.255811 -35.940217 83.798125 19.345853 -8.178334 88.089447 0.000000 0.000000 0.000000 -5.690358 2.119002 80.317757 5.903702 -0.126364 -29.980939 6.280845 11.342455 23.720675 -1.677674 2.558727 -8.523538 0.000000 0.000000 0.000000 -16.838813 -47.817118 24.103713 14.199553 -45.340925 -9.646180 18.971664 -9.151540 -0.942202 0.000000 0.000000 0.000000 -3.165704 44.880205 17.764941 -18.527978 34.130574 -6.293055 -17.506150 7.859637 -0.689223 0.000000 0.000000 0.000000 
-0.000409 0.576539 -0.002032 -6.782837 -1.215902 26.844896 22.851891 11.738150 -80.235666 -11.715410 16.558961 106.669558 12.731346 23.014401 27.473590 0.000000 0.000000 0.000000 -17.401434 -4.407303 -95.869074 35.522265 -36.983192 85.230769 19.695807 -7.750210 87.219282 0.000000 0.000000 0.000000 -5.531419 2.035064 78.294610 5.414479 -0.278366 -26.875731 7.447329 9.558087 25.313542 -4.668102 4.614550 -8.172857 0.000000 0.000000 0.000000 -15.559201 -47.365950 23.788792 19.962326 -44.021246 -11.237910 19.870372 -6.278669 -0.670170 0.000000 0.000000 0.000000 -7.642378 46.723519 15.820961 -18.953663 36.031857 -6.890562 -20.747724 4.157589 -0.278663 0.000000 0.000000 0.000000 
-0.000174 0.574819 -0.005013 -6.047720 -3.087385 27.504591 21.734055 12.876486 -83.820686 -12.011456 17.745769 108.826343 11.361784 21.499774 33.706952 0.000000 0.000000 0.000000 -18.561102 -4.389740 -97.636862 35.122847 -37.079491 85.918940 19.455809 -7.952153 87.481332 0.000000 0.000000 0.000000 -4.844855 2.488029 79.032142 5.844512 -0.334512 -27.444202 6.717782 8.570149 24.446503 -7.003734 6.105319 -3.984170 0.000000 0.000000 0.000000 -15.208811 -46.330959 23.357479 20.235525 -44.264371 -11.260289 19.945861 -4.708930 -0.469035 0.000000 0.000000 0.000000 -4.004036 47.235224 17.744169 -22.397556 35.565554 -7.858170 -18.435443 2.220622 0.012863 0.000000 0.000000 0.000000 
0.000237 0.578434 -0.009333 -6.739376 -3.437451 28.053209 21.826845 13.668993 -85.297149 -11.772191 17.449264 109.253956 10.735122 20.884315 34.602807 0.000000 0.000000 0.000000 -17.759171 -3.238360 -98.208234 34.443776 -36.108533 85.634991 19.770403 -7.926183 87.825630 0.000000 0.000000 0.000000 -4.993200 2.864378 78.830805 4.900917 -0.247094 -26.307857 6.965426 7.250766 24.723886 -8.977671 7.564393 -3.751456 0.000000 0.000000 0.000000 -11.441619 -45.970653 22.052531 23.410559 -43.575590 -12.102006 21.984289 -1.037172 0.020695 0.000000 0.000000 0.000000 -6.645310 48.099708 16.630007 -24.252429 35.182663 -8.256720 -20.779132 1.625674 0.125247 0.000000 0.000000 0.000000 
0.000862 0.581881 -0.014888 -6.085382 -4.207398 27.686028 21.536207 13.905175 -85.539237 -12.474551 18.551025 108.923848 10.521425 20.715372 35.622276 0.000000 0.000000 0.000000 -18.262174 -3.178624 -97.168992 34.205916 -35.433690 84.935080 19.688129 -8.221983 88.631254 0.000000 0.000000 0.000000 -5.247800 3.549213 80.141769 5.347909 -0.295908 -26.984066 6.452749 6.867079 25.416517 -8.981103 7.518752 -7.047185 0.000000 0.000000 0.000000 -6.558381 -46.189316 20.178567 24.288734 -41.408062 -11.526680 20.885128 -0.251117 0.063808 0.000000 0.000000 0.000000 -9.415092 48.467684 15.252067 -24.412444 34.668499 -8.039015 -20.768881 -0.122809 0.383185 0.000000 0.000000 0.000000 
